<mxfile>
    <diagram id="lpKGh_ZZmH6A0EWYgQ_b" name="Questão">
        <mxGraphModel dx="760" dy="1067" grid="1" gridSize="10" guides="1" tooltips="1" connect="1" arrows="1" fold="1" page="1" pageScale="1" pageWidth="827" pageHeight="1169" math="0" shadow="0">
            <root>
                <mxCell id="0"/>
                <mxCell id="1" parent="0"/>
                <mxCell id="198" style="edgeStyle=orthogonalEdgeStyle;rounded=0;orthogonalLoop=1;jettySize=auto;html=1;exitX=0.5;exitY=0;exitDx=0;exitDy=0;entryX=0.387;entryY=0.875;entryDx=0;entryDy=0;entryPerimeter=0;endArrow=none;endFill=0;" edge="1" parent="1" source="197" target="183">
                    <mxGeometry relative="1" as="geometry"/>
                </mxCell>
                <mxCell id="K8ixmE3VCN6pQSZZg9Ir-34" value="&lt;h1&gt;Questão 11&lt;/h1&gt;" style="text;html=1;strokeColor=none;fillColor=none;spacing=5;spacingTop=-20;whiteSpace=wrap;overflow=hidden;rounded=0;align=center;verticalAlign=top;" parent="1" vertex="1">
                    <mxGeometry x="40" y="40" width="749" height="40" as="geometry"/>
                </mxCell>
                <mxCell id="134" value="&lt;h1 style=&quot;text-align: left&quot;&gt;&lt;span style=&quot;left: 232.183px ; top: 821.741px ; font-size: 20px ; font-family: sans-serif ; transform: scalex(0.934504)&quot; dir=&quot;ltr&quot;&gt;Construa um DER que modela a mesma realidade que é mode&lt;/span&gt;&lt;span style=&quot;left: 113.983px ; top: 848.181px ; font-size: 20px ; font-family: sans-serif ; transform: scalex(0.944508)&quot; dir=&quot;ltr&quot;&gt;lada pela figura, usando apenas relacionamentos 1:n.&lt;/span&gt;&lt;br&gt;&lt;/h1&gt;" style="text;html=1;strokeColor=none;fillColor=none;spacing=5;spacingTop=-20;whiteSpace=wrap;overflow=hidden;rounded=0;align=center;verticalAlign=top;" parent="1" vertex="1">
                    <mxGeometry x="40" y="280" width="749" height="80" as="geometry"/>
                </mxCell>
                <mxCell id="185" value="0,n" style="edgeStyle=orthogonalEdgeStyle;rounded=0;orthogonalLoop=1;jettySize=auto;html=1;endArrow=none;endFill=0;" edge="1" parent="1" source="183" target="184">
                    <mxGeometry relative="1" as="geometry"/>
                </mxCell>
                <mxCell id="187" value="0,n" style="edgeStyle=orthogonalEdgeStyle;rounded=0;orthogonalLoop=1;jettySize=auto;html=1;endArrow=none;endFill=0;" edge="1" parent="1" source="183" target="186">
                    <mxGeometry relative="1" as="geometry"/>
                </mxCell>
                <mxCell id="183" value="ATUAÇÃO" style="rhombus;whiteSpace=wrap;html=1;" vertex="1" parent="1">
                    <mxGeometry x="358.5" y="120" width="121.5" height="80" as="geometry"/>
                </mxCell>
                <mxCell id="184" value="ENGENHEIRO" style="whiteSpace=wrap;html=1;" vertex="1" parent="1">
                    <mxGeometry x="200" y="130" width="120" height="60" as="geometry"/>
                </mxCell>
                <mxCell id="186" value="PROJETO" style="whiteSpace=wrap;html=1;" vertex="1" parent="1">
                    <mxGeometry x="520" y="130" width="120" height="60" as="geometry"/>
                </mxCell>
                <mxCell id="190" style="edgeStyle=orthogonalEdgeStyle;rounded=0;orthogonalLoop=1;jettySize=auto;html=1;exitX=0.5;exitY=0;exitDx=0;exitDy=0;entryX=0.208;entryY=1;entryDx=0;entryDy=0;entryPerimeter=0;endArrow=none;endFill=0;" edge="1" parent="1" source="188">
                    <mxGeometry relative="1" as="geometry">
                        <mxPoint x="544.9599999999999" y="190" as="targetPoint"/>
                    </mxGeometry>
                </mxCell>
                <mxCell id="188" value="Código" style="ellipse;whiteSpace=wrap;html=1;aspect=fixed;labelPosition=center;verticalLabelPosition=bottom;align=center;verticalAlign=top;" vertex="1" parent="1">
                    <mxGeometry x="540" y="210" width="10" height="10" as="geometry"/>
                </mxCell>
                <mxCell id="191" style="edgeStyle=orthogonalEdgeStyle;rounded=0;orthogonalLoop=1;jettySize=auto;html=1;exitX=0.5;exitY=0;exitDx=0;exitDy=0;entryX=0.675;entryY=1;entryDx=0;entryDy=0;entryPerimeter=0;endArrow=none;endFill=0;" edge="1" parent="1" source="189">
                    <mxGeometry relative="1" as="geometry">
                        <mxPoint x="601" y="190" as="targetPoint"/>
                    </mxGeometry>
                </mxCell>
                <mxCell id="189" value="Título" style="ellipse;whiteSpace=wrap;html=1;aspect=fixed;labelPosition=center;verticalLabelPosition=bottom;align=center;verticalAlign=top;" vertex="1" parent="1">
                    <mxGeometry x="596" y="210" width="10" height="10" as="geometry"/>
                </mxCell>
                <mxCell id="192" style="edgeStyle=orthogonalEdgeStyle;rounded=0;orthogonalLoop=1;jettySize=auto;html=1;exitX=0.5;exitY=0;exitDx=0;exitDy=0;entryX=0.208;entryY=1;entryDx=0;entryDy=0;entryPerimeter=0;endArrow=none;endFill=0;" edge="1" source="193" parent="1">
                    <mxGeometry relative="1" as="geometry">
                        <mxPoint x="230.95999999999992" y="190" as="targetPoint"/>
                    </mxGeometry>
                </mxCell>
                <mxCell id="193" value="Cargo" style="ellipse;whiteSpace=wrap;html=1;aspect=fixed;labelPosition=center;verticalLabelPosition=bottom;align=center;verticalAlign=top;" vertex="1" parent="1">
                    <mxGeometry x="226" y="210" width="10" height="10" as="geometry"/>
                </mxCell>
                <mxCell id="194" style="edgeStyle=orthogonalEdgeStyle;rounded=0;orthogonalLoop=1;jettySize=auto;html=1;exitX=0.5;exitY=0;exitDx=0;exitDy=0;entryX=0.675;entryY=1;entryDx=0;entryDy=0;entryPerimeter=0;endArrow=none;endFill=0;" edge="1" source="195" parent="1">
                    <mxGeometry relative="1" as="geometry">
                        <mxPoint x="287" y="190" as="targetPoint"/>
                    </mxGeometry>
                </mxCell>
                <mxCell id="195" value="Nome" style="ellipse;whiteSpace=wrap;html=1;aspect=fixed;labelPosition=center;verticalLabelPosition=bottom;align=center;verticalAlign=top;" vertex="1" parent="1">
                    <mxGeometry x="282" y="210" width="10" height="10" as="geometry"/>
                </mxCell>
                <mxCell id="197" value="Função" style="ellipse;whiteSpace=wrap;html=1;aspect=fixed;labelPosition=center;verticalLabelPosition=bottom;align=center;verticalAlign=top;" vertex="1" parent="1">
                    <mxGeometry x="400" y="210" width="10" height="10" as="geometry"/>
                </mxCell>
                <mxCell id="200" style="edgeStyle=orthogonalEdgeStyle;rounded=0;orthogonalLoop=1;jettySize=auto;html=1;exitX=0.5;exitY=0;exitDx=0;exitDy=0;entryX=0.387;entryY=0.875;entryDx=0;entryDy=0;entryPerimeter=0;endArrow=none;endFill=0;" edge="1" source="214" target="203" parent="1">
                    <mxGeometry relative="1" as="geometry"/>
                </mxCell>
                <mxCell id="201" value="1" style="edgeStyle=orthogonalEdgeStyle;rounded=0;orthogonalLoop=1;jettySize=auto;html=1;endArrow=none;endFill=0;" edge="1" source="220" target="204" parent="1">
                    <mxGeometry relative="1" as="geometry"/>
                </mxCell>
                <mxCell id="202" value="1" style="edgeStyle=orthogonalEdgeStyle;rounded=0;orthogonalLoop=1;jettySize=auto;html=1;endArrow=none;endFill=0;" edge="1" source="216" target="205" parent="1">
                    <mxGeometry relative="1" as="geometry"/>
                </mxCell>
                <mxCell id="203" value="ATUAÇÃO" style="rounded=0;whiteSpace=wrap;html=1;fontFamily=Helvetica;fontSize=12;fontColor=#000000;align=center;strokeColor=#000000;fillColor=#ffffff;" vertex="1" parent="1">
                    <mxGeometry x="358.5" y="400" width="121.5" height="60" as="geometry"/>
                </mxCell>
                <mxCell id="204" value="ENGENHEIRO" style="whiteSpace=wrap;html=1;" vertex="1" parent="1">
                    <mxGeometry x="120" y="400" width="120" height="60" as="geometry"/>
                </mxCell>
                <mxCell id="205" value="PROJETO" style="whiteSpace=wrap;html=1;" vertex="1" parent="1">
                    <mxGeometry x="600" y="400" width="120" height="60" as="geometry"/>
                </mxCell>
                <mxCell id="206" style="edgeStyle=orthogonalEdgeStyle;rounded=0;orthogonalLoop=1;jettySize=auto;html=1;exitX=0.5;exitY=0;exitDx=0;exitDy=0;entryX=0.208;entryY=1;entryDx=0;entryDy=0;entryPerimeter=0;endArrow=none;endFill=0;" edge="1" source="207" parent="1">
                    <mxGeometry relative="1" as="geometry">
                        <mxPoint x="624.96" y="460" as="targetPoint"/>
                    </mxGeometry>
                </mxCell>
                <mxCell id="207" value="Código" style="ellipse;whiteSpace=wrap;html=1;aspect=fixed;labelPosition=center;verticalLabelPosition=bottom;align=center;verticalAlign=top;" vertex="1" parent="1">
                    <mxGeometry x="620" y="480" width="10" height="10" as="geometry"/>
                </mxCell>
                <mxCell id="208" style="edgeStyle=orthogonalEdgeStyle;rounded=0;orthogonalLoop=1;jettySize=auto;html=1;exitX=0.5;exitY=0;exitDx=0;exitDy=0;entryX=0.675;entryY=1;entryDx=0;entryDy=0;entryPerimeter=0;endArrow=none;endFill=0;" edge="1" source="209" parent="1">
                    <mxGeometry relative="1" as="geometry">
                        <mxPoint x="681" y="460" as="targetPoint"/>
                    </mxGeometry>
                </mxCell>
                <mxCell id="209" value="Título" style="ellipse;whiteSpace=wrap;html=1;aspect=fixed;labelPosition=center;verticalLabelPosition=bottom;align=center;verticalAlign=top;" vertex="1" parent="1">
                    <mxGeometry x="676" y="480" width="10" height="10" as="geometry"/>
                </mxCell>
                <mxCell id="210" style="edgeStyle=orthogonalEdgeStyle;rounded=0;orthogonalLoop=1;jettySize=auto;html=1;exitX=0.5;exitY=0;exitDx=0;exitDy=0;entryX=0.208;entryY=1;entryDx=0;entryDy=0;entryPerimeter=0;endArrow=none;endFill=0;" edge="1" source="211" parent="1">
                    <mxGeometry relative="1" as="geometry">
                        <mxPoint x="150.95999999999992" y="460" as="targetPoint"/>
                    </mxGeometry>
                </mxCell>
                <mxCell id="211" value="Cargo" style="ellipse;whiteSpace=wrap;html=1;aspect=fixed;labelPosition=center;verticalLabelPosition=bottom;align=center;verticalAlign=top;" vertex="1" parent="1">
                    <mxGeometry x="146" y="480" width="10" height="10" as="geometry"/>
                </mxCell>
                <mxCell id="212" style="edgeStyle=orthogonalEdgeStyle;rounded=0;orthogonalLoop=1;jettySize=auto;html=1;exitX=0.5;exitY=0;exitDx=0;exitDy=0;entryX=0.675;entryY=1;entryDx=0;entryDy=0;entryPerimeter=0;endArrow=none;endFill=0;" edge="1" source="213" parent="1">
                    <mxGeometry relative="1" as="geometry">
                        <mxPoint x="207" y="460" as="targetPoint"/>
                    </mxGeometry>
                </mxCell>
                <mxCell id="213" value="Nome" style="ellipse;whiteSpace=wrap;html=1;aspect=fixed;labelPosition=center;verticalLabelPosition=bottom;align=center;verticalAlign=top;" vertex="1" parent="1">
                    <mxGeometry x="202" y="480" width="10" height="10" as="geometry"/>
                </mxCell>
                <mxCell id="214" value="Função" style="ellipse;whiteSpace=wrap;html=1;aspect=fixed;labelPosition=center;verticalLabelPosition=bottom;align=center;verticalAlign=top;" vertex="1" parent="1">
                    <mxGeometry x="400" y="480" width="10" height="10" as="geometry"/>
                </mxCell>
                <mxCell id="216" value="" style="rhombus;whiteSpace=wrap;html=1;" vertex="1" parent="1">
                    <mxGeometry x="520" y="420" width="40" height="20" as="geometry"/>
                </mxCell>
                <mxCell id="217" value="0,n" style="edgeStyle=orthogonalEdgeStyle;rounded=0;orthogonalLoop=1;jettySize=auto;html=1;endArrow=none;endFill=0;" edge="1" parent="1" source="203" target="216">
                    <mxGeometry relative="1" as="geometry">
                        <mxPoint x="480" y="430.0000000000002" as="sourcePoint"/>
                        <mxPoint x="600" y="430.0000000000002" as="targetPoint"/>
                    </mxGeometry>
                </mxCell>
                <mxCell id="220" value="" style="rhombus;whiteSpace=wrap;html=1;" vertex="1" parent="1">
                    <mxGeometry x="280" y="420" width="40" height="20" as="geometry"/>
                </mxCell>
                <mxCell id="221" value="0,n" style="edgeStyle=orthogonalEdgeStyle;rounded=0;orthogonalLoop=1;jettySize=auto;html=1;endArrow=none;endFill=0;" edge="1" parent="1" source="203" target="220">
                    <mxGeometry relative="1" as="geometry">
                        <mxPoint x="358.5" y="430.0000000000002" as="sourcePoint"/>
                        <mxPoint x="240.0000000000001" y="430.0000000000002" as="targetPoint"/>
                    </mxGeometry>
                </mxCell>
            </root>
        </mxGraphModel>
    </diagram>
</mxfile>